# xmcd CD database file
#
# Track frame offsets:
#	150
#	37636
#	73002
#	104011
#	130829
#	167188
#
# Disc length: 2484 seconds
#
# Revision: 0
# Processed by: cddbd v1.5.2PL0 Copyright (c) Steve Scherf et al.
# Submitted via: CDex 1.70beta2
#
DISCID=4c09b206
DTITLE=David Chevallier - Gesuado - Variations
DYEAR=2009
DGENRE=Jazz
TTITLE0=Mille volte
TTITLE1=Itene
TTITLE2=Pur respiro
TTITLE3=Io parto
TTITLE4=Moro lasso
TTITLE5=Languisce
EXTD=YEAR: 2009
EXTT0=
EXTT1=
EXTT2=
EXTT3=
EXTT4=
EXTT5=
PLAYORDER=
